<svg xmlns="http://www.w3.org/2000/svg" width="522" height="522" viewBox="0 0 522 522" version="1.1"><path d="M 421 269 L 421 277 429 277 L 437 277 437 285 L 437 293 461 293 L 485 293 485 277 L 485 261 477 261 L 469 261 469 269 L 469 277 453 277 L 437 277 437 269 L 437 261 429 261 L 421 261 421 269 M 293 317 L 293 325 301 325 L 309 325 309 333 L 309 341 317 341 L 325 341 325 333 L 325 325 317 325 L 309 325 309 317 L 309 309 301 309 L 293 309 293 317 M 405 365 L 405 373 413 373 L 421 373 421 381 L 421 389 429 389 L 437 389 437 381 L 437 373 429 373 L 421 373 421 365 L 421 357 413 357 L 405 357 405 365 M 293 429 L 293 453 301 453 L 309 453 309 461 L 309 469 317 469 L 325 469 325 477 L 325 485 333 485 L 341 485 341 493 L 341 501 389 501 L 437 501 437 493 L 437 485 453 485 L 469 485 469 477 L 469 469 477 469 L 485 469 485 445 L 485 421 477 421 L 469 421 469 429 L 469 437 461 437 L 453 437 453 445 L 453 453 445 453 L 437 453 437 461 L 437 469 397 469 L 357 469 357 461 L 357 453 341 453 L 325 453 325 445 L 325 437 317 437 L 309 437 309 421 L 309 405 301 405 L 293 405 293 429" stroke="none" fill="#808000" fill-rule="evenodd"/><path d="M 325 221 L 325 229 317 229 L 309 229 309 237 L 309 245 301 245 L 293 245 293 277 L 293 309 301 309 L 309 309 309 317 L 309 325 317 325 L 325 325 325 301 L 325 277 333 277 L 341 277 341 269 L 341 261 389 261 L 437 261 437 269 L 437 277 453 277 L 469 277 469 269 L 469 261 477 261 L 485 261 485 253 L 485 245 477 245 L 469 245 469 237 L 469 229 453 229 L 437 229 437 221 L 437 213 381 213 L 325 213 325 221 M 405 341 L 405 357 413 357 L 421 357 421 365 L 421 373 429 373 L 437 373 437 389 L 437 405 429 405 L 421 405 421 413 L 421 421 389 421 L 357 421 357 413 L 357 405 349 405 L 341 405 341 397 L 341 389 317 389 L 293 389 293 397 L 293 405 301 405 L 309 405 309 421 L 309 437 317 437 L 325 437 325 445 L 325 453 341 453 L 357 453 357 461 L 357 469 397 469 L 437 469 437 461 L 437 453 445 453 L 453 453 453 445 L 453 437 461 437 L 469 437 469 429 L 469 421 477 421 L 485 421 485 389 L 485 357 477 357 L 469 357 469 349 L 469 341 453 341 L 437 341 437 333 L 437 325 421 325 L 405 325 405 341" stroke="none" fill="#ffff00" fill-rule="evenodd"/><path d="M 293 221 L 293 229 285 229 L 277 229 277 237 L 277 245 285 245 L 293 245 293 237 L 293 229 301 229 L 309 229 309 221 L 309 213 301 213 L 293 213 293 221 M 197 269 L 197 277 189 277 L 181 277 181 325 L 181 373 189 373 L 197 373 197 325 L 197 277 205 277 L 213 277 213 269 L 213 261 205 261 L 197 261 197 269 M 261 277 L 261 293 269 293 L 277 293 277 277 L 277 261 269 261 L 261 261 261 277 M 341 333 L 341 389 349 389 L 357 389 357 333 L 357 277 349 277 L 341 277 341 333 M 213 485 L 213 501 269 501 L 325 501 325 493 L 325 485 317 485 L 309 485 309 477 L 309 469 261 469 L 213 469 213 485" stroke="none" fill="#800080" fill-rule="evenodd"/><path d="M 197 221 L 197 229 189 229 L 181 229 181 237 L 181 245 173 245 L 165 245 165 261 L 165 277 157 277 L 149 277 149 333 L 149 389 157 389 L 165 389 165 397 L 165 405 173 405 L 181 405 181 341 L 181 277 189 277 L 197 277 197 269 L 197 261 237 261 L 277 261 277 245 L 277 229 285 229 L 293 229 293 221 L 293 213 245 213 L 197 213 197 221 M 357 341 L 357 405 365 405 L 373 405 373 397 L 373 389 381 389 L 389 389 389 333 L 389 277 373 277 L 357 277 357 341 M 245 429 L 245 437 237 437 L 229 437 229 445 L 229 453 221 453 L 213 453 213 461 L 213 469 253 469 L 293 469 293 461 L 293 453 285 453 L 277 453 277 437 L 277 421 261 421 L 245 421 245 429" stroke="none" fill="#ff00ff" fill-rule="evenodd"/><path d="M 165 221 L 165 229 157 229 L 149 229 149 237 L 149 245 157 245 L 165 245 165 237 L 165 229 173 229 L 181 229 181 221 L 181 213 173 213 L 165 213 165 221 M 85 277 L 85 293 109 293 L 133 293 133 285 L 133 277 141 277 L 149 277 149 269 L 149 261 117 261 L 85 261 85 277 M 229 397 L 229 405 221 405 L 213 405 213 421 L 213 437 221 437 L 229 437 229 421 L 229 405 237 405 L 245 405 245 397 L 245 389 237 389 L 229 389 229 397 M 181 461 L 181 469 117 469 L 53 469 53 477 L 53 485 45 485 L 37 485 37 493 L 37 501 109 501 L 181 501 181 493 L 181 485 189 485 L 197 485 197 469 L 197 453 189 453 L 181 453 181 461" stroke="none" fill="#800000" fill-rule="evenodd"/><path d="M 37 349 L 37 485 45 485 L 53 485 53 477 L 53 469 117 469 L 181 469 181 461 L 181 453 189 453 L 197 453 197 445 L 197 437 205 437 L 213 437 213 421 L 213 405 221 405 L 229 405 229 397 L 229 389 237 389 L 245 389 245 333 L 245 277 229 277 L 213 277 213 333 L 213 389 205 389 L 197 389 197 397 L 197 405 189 405 L 181 405 181 413 L 181 421 133 421 L 85 421 85 341 L 85 261 117 261 L 149 261 149 245 L 149 229 157 229 L 165 229 165 221 L 165 213 101 213 L 37 213 37 349" stroke="none" fill="#ff0000" fill-rule="evenodd"/><path d="M 37 101 L 37 197 29 197 L 21 197 21 349 L 21 501 29 501 L 37 501 37 509 L 37 517 109 517 L 181 517 181 509 L 181 501 197 501 L 213 501 213 509 L 213 517 269 517 L 325 517 325 509 L 325 501 333 501 L 341 501 341 509 L 341 517 389 517 L 437 517 437 509 L 437 501 453 501 L 469 501 469 493 L 469 485 477 485 L 485 485 485 477 L 485 469 493 469 L 501 469 501 413 L 501 357 493 357 L 485 357 485 349 L 485 341 477 341 L 469 341 469 333 L 469 325 453 325 L 437 325 437 317 L 437 309 461 309 L 485 309 485 301 L 485 293 493 293 L 501 293 501 269 L 501 245 493 245 L 485 245 485 237 L 485 229 477 229 L 469 229 469 221 L 469 213 453 213 L 437 213 437 205 L 437 197 445 197 L 453 197 453 189 L 453 181 461 181 L 469 181 469 157 L 469 133 461 133 L 453 133 453 125 L 453 117 445 117 L 437 117 437 109 L 437 101 421 101 L 405 101 405 93 L 405 85 437 85 L 469 85 469 61 L 469 37 461 37 L 453 37 453 29 L 453 21 437 21 L 421 21 421 13 L 421 5 381 5 L 341 5 341 13 L 341 21 325 21 L 309 21 309 29 L 309 37 301 37 L 293 37 293 69 L 293 101 301 101 L 309 101 309 109 L 309 117 325 117 L 341 117 341 125 L 341 133 317 133 L 293 133 293 157 L 293 181 301 181 L 309 181 309 189 L 309 197 293 197 L 277 197 277 101 L 277 5 245 5 L 213 5 213 13 L 213 21 205 21 L 197 21 197 37 L 197 53 189 53 L 181 53 181 69 L 181 85 173 85 L 165 85 165 101 L 165 117 157 117 L 149 117 149 101 L 149 85 141 85 L 133 85 133 69 L 133 53 125 53 L 117 53 117 37 L 117 21 109 21 L 101 21 101 13 L 101 5 69 5 L 37 5 37 101 M 53 109 L 53 197 69 197 L 85 197 85 149 L 85 101 93 101 L 101 101 101 109 L 101 117 109 117 L 117 117 117 133 L 117 149 109 149 L 101 149 101 173 L 101 197 117 197 L 133 197 133 189 L 133 181 141 181 L 149 181 149 189 L 149 197 157 197 L 165 197 165 189 L 165 181 173 181 L 181 181 181 197 L 181 213 109 213 L 37 213 37 357 L 37 501 109 501 L 181 501 181 493 L 181 485 189 485 L 197 485 197 461 L 197 437 213 437 L 229 437 229 445 L 229 453 221 453 L 213 453 213 477 L 213 501 269 501 L 325 501 325 493 L 325 485 333 485 L 341 485 341 493 L 341 501 389 501 L 437 501 437 493 L 437 485 453 485 L 469 485 469 477 L 469 469 477 469 L 485 469 485 413 L 485 357 477 357 L 469 357 469 349 L 469 341 453 341 L 437 341 437 333 L 437 325 421 325 L 405 325 405 349 L 405 373 413 373 L 421 373 421 381 L 421 389 405 389 L 389 389 389 333 L 389 277 365 277 L 341 277 341 269 L 341 261 381 261 L 421 261 421 269 L 421 277 413 277 L 405 277 405 293 L 405 309 421 309 L 437 309 437 301 L 437 293 461 293 L 485 293 485 269 L 485 245 477 245 L 469 245 469 237 L 469 229 453 229 L 437 229 437 221 L 437 213 381 213 L 325 213 325 205 L 325 197 381 197 L 437 197 437 189 L 437 181 445 181 L 453 181 453 157 L 453 133 445 133 L 437 133 437 125 L 437 117 421 117 L 405 117 405 109 L 405 101 381 101 L 357 101 357 93 L 357 85 381 85 L 405 85 405 69 L 405 53 413 53 L 421 53 421 61 L 421 69 437 69 L 453 69 453 53 L 453 37 437 37 L 421 37 421 29 L 421 21 381 21 L 341 21 341 29 L 341 37 325 37 L 309 37 309 69 L 309 101 325 101 L 341 101 341 109 L 341 117 365 117 L 389 117 389 125 L 389 133 365 133 L 341 133 341 141 L 341 149 325 149 L 309 149 309 165 L 309 181 317 181 L 325 181 325 189 L 325 197 317 197 L 309 197 309 205 L 309 213 253 213 L 197 213 197 205 L 197 197 205 197 L 213 197 213 173 L 213 149 205 149 L 197 149 197 133 L 197 117 205 117 L 213 117 213 109 L 213 101 221 101 L 229 101 229 149 L 229 197 245 197 L 261 197 261 109 L 261 21 237 21 L 213 21 213 37 L 213 53 205 53 L 197 53 197 69 L 197 85 189 85 L 181 85 181 101 L 181 117 173 117 L 165 117 165 133 L 165 149 157 149 L 149 149 149 133 L 149 117 141 117 L 133 117 133 101 L 133 85 125 85 L 117 85 117 69 L 117 53 109 53 L 101 53 101 37 L 101 21 77 21 L 53 21 53 109 M 357 45 L 357 53 349 53 L 341 53 341 69 L 341 85 349 85 L 357 85 357 69 L 357 53 381 53 L 405 53 405 45 L 405 37 381 37 L 357 37 357 45 M 389 141 L 389 149 397 149 L 405 149 405 157 L 405 165 381 165 L 357 165 357 157 L 357 149 349 149 L 341 149 341 165 L 341 181 373 181 L 405 181 405 173 L 405 165 413 165 L 421 165 421 157 L 421 149 413 149 L 405 149 405 141 L 405 133 397 133 L 389 133 389 141 M 117 165 L 117 181 125 181 L 133 181 133 165 L 133 149 125 149 L 117 149 117 165 M 181 165 L 181 181 189 181 L 197 181 197 165 L 197 149 189 149 L 181 149 181 165 M 181 221 L 181 229 173 229 L 165 229 165 237 L 165 245 157 245 L 149 245 149 261 L 149 277 141 277 L 133 277 133 285 L 133 293 109 293 L 85 293 85 357 L 85 421 133 421 L 181 421 181 413 L 181 405 189 405 L 197 405 197 397 L 197 389 205 389 L 213 389 213 333 L 213 277 229 277 L 245 277 245 341 L 245 405 237 405 L 229 405 229 421 L 229 437 237 437 L 245 437 245 429 L 245 421 261 421 L 277 421 277 437 L 277 453 285 453 L 293 453 293 461 L 293 469 301 469 L 309 469 309 477 L 309 485 317 485 L 325 485 325 477 L 325 469 317 469 L 309 469 309 461 L 309 453 301 453 L 293 453 293 421 L 293 389 317 389 L 341 389 341 397 L 341 405 349 405 L 357 405 357 413 L 357 421 389 421 L 421 421 421 413 L 421 405 429 405 L 437 405 437 397 L 437 389 429 389 L 421 389 421 397 L 421 405 405 405 L 389 405 389 397 L 389 389 381 389 L 373 389 373 397 L 373 405 365 405 L 357 405 357 397 L 357 389 349 389 L 341 389 341 333 L 341 277 333 277 L 325 277 325 309 L 325 341 317 341 L 309 341 309 333 L 309 325 301 325 L 293 325 293 285 L 293 245 301 245 L 309 245 309 237 L 309 229 317 229 L 325 229 325 221 L 325 213 317 213 L 309 213 309 221 L 309 229 301 229 L 293 229 293 237 L 293 245 285 245 L 277 245 277 269 L 277 293 269 293 L 261 293 261 277 L 261 261 237 261 L 213 261 213 269 L 213 277 205 277 L 197 277 197 325 L 197 373 189 373 L 181 373 181 389 L 181 405 173 405 L 165 405 165 397 L 165 389 157 389 L 149 389 149 333 L 149 277 157 277 L 165 277 165 261 L 165 245 173 245 L 181 245 181 237 L 181 229 189 229 L 197 229 197 221 L 197 213 189 213 L 181 213 181 221 M 421 285 L 421 293 429 293 L 437 293 437 285 L 437 277 429 277 L 421 277 421 285 M 101 357 L 101 405 125 405 L 149 405 149 397 L 149 389 141 389 L 133 389 133 349 L 133 309 117 309 L 101 309 101 357 M 261 357 L 261 405 269 405 L 277 405 277 397 L 277 389 285 389 L 293 389 293 381 L 293 373 309 373 L 325 373 325 365 L 325 357 317 357 L 309 357 309 349 L 309 341 301 341 L 293 341 293 333 L 293 325 285 325 L 277 325 277 317 L 277 309 269 309 L 261 309 261 357" stroke="none" fill="#000000" fill-rule="evenodd"/><path d="M 85 29 L 85 37 93 37 L 101 37 101 29 L 101 21 93 21 L 85 21 85 29 M 245 109 L 245 197 253 197 L 261 197 261 109 L 261 21 253 21 L 245 21 245 109 M 405 29 L 405 37 413 37 L 421 37 421 29 L 421 21 413 21 L 405 21 405 29 M 341 45 L 341 53 333 53 L 325 53 325 77 L 325 101 341 101 L 357 101 357 93 L 357 85 349 85 L 341 85 341 69 L 341 53 349 53 L 357 53 357 45 L 357 37 349 37 L 341 37 341 45 M 437 53 L 437 69 445 69 L 453 69 453 53 L 453 37 445 37 L 437 37 437 53 M 101 61 L 101 69 109 69 L 117 69 117 61 L 117 53 109 53 L 101 53 101 61 M 69 133 L 69 197 77 197 L 85 197 85 149 L 85 101 93 101 L 101 101 101 93 L 101 85 93 85 L 85 85 85 77 L 85 69 77 69 L 69 69 69 133 M 117 93 L 117 101 125 101 L 133 101 133 93 L 133 85 125 85 L 117 85 117 93 M 213 93 L 213 101 221 101 L 229 101 229 93 L 229 85 221 85 L 213 85 213 93 M 389 109 L 389 117 397 117 L 405 117 405 109 L 405 101 397 101 L 389 101 389 109 M 133 125 L 133 133 141 133 L 149 133 149 125 L 149 117 141 117 L 133 117 133 125 M 421 125 L 421 133 429 133 L 437 133 437 157 L 437 181 429 181 L 421 181 421 189 L 421 197 429 197 L 437 197 437 189 L 437 181 445 181 L 453 181 453 157 L 453 133 445 133 L 437 133 437 125 L 437 117 429 117 L 421 117 421 125 M 149 157 L 149 165 157 165 L 165 165 165 157 L 165 149 157 149 L 149 149 149 157" stroke="none" fill="#808080" fill-rule="evenodd"/><path d="M 53 109 L 53 197 61 197 L 69 197 69 133 L 69 69 77 69 L 85 69 85 77 L 85 85 93 85 L 101 85 101 101 L 101 117 109 117 L 117 117 117 133 L 117 149 125 149 L 133 149 133 165 L 133 181 141 181 L 149 181 149 189 L 149 197 157 197 L 165 197 165 189 L 165 181 173 181 L 181 181 181 165 L 181 149 189 149 L 197 149 197 133 L 197 117 205 117 L 213 117 213 101 L 213 85 221 85 L 229 85 229 141 L 229 197 237 197 L 245 197 245 109 L 245 21 229 21 L 213 21 213 37 L 213 53 205 53 L 197 53 197 69 L 197 85 189 85 L 181 85 181 101 L 181 117 173 117 L 165 117 165 141 L 165 165 157 165 L 149 165 149 149 L 149 133 141 133 L 133 133 133 117 L 133 101 125 101 L 117 101 117 85 L 117 69 109 69 L 101 69 101 53 L 101 37 93 37 L 85 37 85 29 L 85 21 69 21 L 53 21 53 109 M 341 29 L 341 37 325 37 L 309 37 309 69 L 309 101 317 101 L 325 101 325 77 L 325 53 333 53 L 341 53 341 45 L 341 37 373 37 L 405 37 405 45 L 405 53 413 53 L 421 53 421 61 L 421 69 429 69 L 437 69 437 53 L 437 37 421 37 L 405 37 405 29 L 405 21 373 21 L 341 21 341 29 M 341 109 L 341 117 365 117 L 389 117 389 125 L 389 133 397 133 L 405 133 405 141 L 405 149 413 149 L 421 149 421 157 L 421 165 413 165 L 405 165 405 173 L 405 181 373 181 L 341 181 341 165 L 341 149 325 149 L 309 149 309 165 L 309 181 317 181 L 325 181 325 189 L 325 197 373 197 L 421 197 421 189 L 421 181 429 181 L 437 181 437 157 L 437 133 429 133 L 421 133 421 125 L 421 117 405 117 L 389 117 389 109 L 389 101 365 101 L 341 101 341 109" stroke="none" fill="#c0c0c0" fill-rule="evenodd"/></svg>